# xmcd
#
# Track frame offsets:
#	150
#	16730
#	41467
#	68995
#	96632
#	124212
#	139077
#	154455
#	175310
#	198710
#	222930
#	234585
#
# Disc length: 3334
#
# Revision: 3
# Processed by: cddbd v1.5.1PL0 Copyright (c) Steve Scherf et al.
# Submitted via: audiograbber 1.81.03
# Normalized: r2:DSETVAR1
#
DISCID=b40d040c
DTITLE=Various Artist - Today's Blues - Vol 2
DYEAR=1986
DGENRE=Blues
TTITLE0=Lonnie Mack - Strike Like Lightning
TTITLE1=Albert Collins and Robert Cray - The Dream
TTITLE2=Johnny Winter - Good Time Woman
TTITLE3=Son Seals - I Can Count On My Blues
TTITLE4=Roy Buchanan and Gloria Hardiman - Why Don't You Want Me?
TTITLE5=Big Twist and The Mellow Fellows - I've Got A Problem
TTITLE6=Lonnie Brooks - Family Blues
TTITLE7=James Cotton - Easy Loving
TTITLE8=Son Seals - Friday Again
TTITLE9=Lonnie Mack - Stop
TTITLE10=Johnny Winter - Lights Out
TTITLE11=Koko Taylor - The Hunter
EXTD=
EXTT0=Lonnie Mack\n
EXTT1=Albert Collins/Robert Cracy\n
EXTT2=Johnny Winter\n
EXTT3=Son Saels\n
EXTT4=Roy Buchanan/Gloria Hardiman\n
EXTT5=Big Twist And The Mellow Fellows\n
EXTT6=Lonnie Brooks\n
EXTT7=James Cotton\n
EXTT8=Son Seals\n
EXTT9=Lonnie Mack\n
EXTT10=Johnny Winter\n
EXTT11=Koko Taylor\n
PLAYORDER=
